<?xml version="1.0" encoding="utf-8"?>
<!-- Generator: Adobe Illustrator 25.4.1, SVG Export Plug-In . SVG Version: 6.00 Build 0)  -->
<svg version="1.1" id="Layer_1" xmlns="http://www.w3.org/2000/svg" xmlns:xlink="http://www.w3.org/1999/xlink" x="0px" y="0px"
	 viewBox="0 0 130 130" style="enable-background:new 0 0 130 130;" xml:space="preserve">
<style type="text/css">
	.st0{fill:none;stroke:#009CA6;stroke-width:4;stroke-miterlimit:10;}
	.st1{fill:none;stroke:#009CA6;stroke-width:4;stroke-linecap:round;stroke-miterlimit:10;}
	.st2{fill:#009CA6;}
	.st3{fill:none;stroke:#009CA6;stroke-width:3;stroke-miterlimit:10;}
	.st4{fill:none;stroke:#009CA6;stroke-width:4;stroke-linecap:round;stroke-linejoin:round;stroke-miterlimit:10;}
	.st5{fill:#009CA6;stroke:#009CA6;stroke-miterlimit:10;}
	.st6{fill:none;stroke:#009CA6;stroke-width:4;stroke-linejoin:round;stroke-miterlimit:10;}
	.st7{fill:none;stroke:#009CA6;stroke-width:4;stroke-linejoin:bevel;stroke-miterlimit:10;}
	.st8{fill:none;stroke:#009CA6;stroke-width:4;stroke-linecap:round;stroke-linejoin:bevel;stroke-miterlimit:10;}
	.st9{fill:none;stroke:#009CA6;stroke-width:6;stroke-miterlimit:10;}
	.st10{fill:none;stroke:#009CA6;stroke-miterlimit:10;}
	.st11{fill:none;stroke:#009CA6;stroke-width:4;stroke-linecap:square;stroke-miterlimit:10;}
	.st12{fill:none;stroke:#009CA6;stroke-width:4;stroke-linecap:square;stroke-linejoin:round;stroke-miterlimit:10;}
	.st13{fill:none;stroke:#009CA6;stroke-width:3.5015;stroke-linecap:round;stroke-linejoin:round;stroke-miterlimit:10;}
</style>
<g>
	<path class="st0" d="M113.6,83.7V72.8l-13.3-1.1c-0.5-1.6-1.1-3.2-1.9-4.6l8.7-10.2l-7.7-7.7l-10.2,8.7c-1.5-0.8-3-1.4-4.6-1.9
		l-1.1-13.3H72.6l-1.1,13.3c-1.6,0.5-3.2,1.1-4.6,1.9l-10.2-8.7L49,56.9l8.7,10.2c-0.8,1.5-1.4,3-1.9,4.6l-13.3,1.1v10.9l13.3,1.1
		c0.5,1.6,1.1,3.2,1.9,4.6L49,99.6l7.7,7.7l10.2-8.7c1.5,0.8,3,1.4,4.6,1.9l1.1,13.3h10.9l1.1-13.3c1.6-0.5,3.2-1.1,4.6-1.9
		l10.2,8.7l7.7-7.7l-8.7-10.2c0.8-1.5,1.4-3,1.9-4.6L113.6,83.7z"/>
	<circle class="st0" cx="78" cy="78.3" r="8.9"/>
	<path class="st0" d="M71.2,50.6L60.5,45c0.2-1.3,0.2-2.5,0.1-3.8l9.1-4.5L66.6,29l-9.7,3c-0.8-1-1.7-1.9-2.7-2.7l3.3-9.6l-7.6-3.3
		l-4.8,9c-1.3-0.2-2.5-0.2-3.8-0.1l-4.5-9.1l-7.7,3.1l3,9.7c-1,0.8-1.9,1.7-2.7,2.7l-9.6-3.3l-3.3,7.6l9,4.8
		c-0.2,1.3-0.2,2.5-0.1,3.8L16.4,49l3.1,7.7l9.7-3c0.8,1,1.7,1.9,2.7,2.7L28.5,66l7.6,3.3l4.8-9c1.3,0.2,2.5,0.2,3.8,0.1l5.6,10.8"
		/>
	<circle class="st0" cx="43.1" cy="42.9" r="6.7"/>
</g>
</svg>
